<svg xmlns="http://www.w3.org/2000/svg" viewBox="0 0 64 64">
  <defs>
    <linearGradient id="bg" x1="0" y1="0" x2="1" y2="1">
      <stop offset="0" stop-color="#fff7fb"/>
      <stop offset="1" stop-color="#ffe8f4"/>
    </linearGradient>
  </defs>
  <rect width="64" height="64" rx="16" fill="url(#bg)"/>
  <circle cx="32" cy="11" r="5.5" fill="#D32F7D"/>
  <path
    d="M24 18 C28 24 28 34 26 45 C25.5 48 25 50 24 54"
    fill="none"
    stroke="#2E2C62"
    stroke-width="3.6"
    stroke-linecap="round"
  />
  <path
    d="M40 18 C36 24 36 34 38 45 C38.5 48 39 50 40 54"
    fill="none"
    stroke="#2E2C62"
    stroke-width="3.6"
    stroke-linecap="round"
  />
  <path
    d="M18 35 C27 27 40 27 47 36 C42 47 30 52 20 47 C15 44 14 39 18 35 Z"
    fill="none"
    stroke="#D32F7D"
    stroke-width="3.2"
    stroke-linecap="round"
    stroke-linejoin="round"
  />
  <circle cx="27.5" cy="37.5" r="2.2" fill="#D32F7D"/>
</svg>
